<svg width="151" height="150" viewBox="0 0 151 150" fill="none" xmlns="http://www.w3.org/2000/svg">
<rect x="0.998047" width="149.998" height="149.998" fill="#236967"/>
<circle cx="76.5327" cy="58.392" r="32.6782" fill="#FFCC1A"/>
<circle cx="76.5327" cy="91.6059" r="32.6782" fill="white"/>
<path d="M45.251 58.392C59.541 52.7202 70.8608 41.4004 76.5327 27.1104C82.2045 41.4004 93.5243 52.7202 107.814 58.392C93.5243 64.0639 82.2045 75.3837 76.5327 89.6737C70.8608 75.3837 59.541 64.0639 45.251 58.392Z" stroke="white"/>
<path d="M45.251 91.6059C59.541 85.9341 70.8608 74.6143 76.5327 60.3243C82.2045 74.6143 93.5243 85.9341 107.814 91.6059C93.5243 97.2778 82.2045 108.598 76.5327 122.888C70.8608 108.598 59.541 97.2778 45.251 91.6059Z" stroke="#FDD503"/>
</svg>
