<svg width="150" height="150" viewBox="0 0 150 150" fill="none" xmlns="http://www.w3.org/2000/svg">
<g clip-path="url(#clip0_335_2253)">
<rect width="150" height="150" fill="#FFCC1A"/>
<path d="M148.393 148.929H0L7.5 126.964L18.2143 106.607L36.9643 91.6073L58.3929 83.0359H90L117.857 94.2859L136.071 120.536L148.393 148.929Z" fill="#236967"/>
<ellipse cx="21.3855" cy="149.957" rx="21.3855" ry="21.3855" fill="#FDE9D4"/>
<circle cx="57.5301" cy="149.957" r="21.3855" fill="#FDE9D4"/>
<circle cx="93.6746" cy="149.957" r="21.3855" fill="#FDE9D4"/>
<ellipse cx="128.615" cy="149.957" rx="21.3856" ry="21.3855" fill="#FDE9D4"/>
<path d="M0 150C0 130.109 7.90176 111.032 21.967 96.967C36.0322 82.9018 55.1088 75 75 75C94.8912 75 113.968 82.9018 128.033 96.967C142.098 111.032 150 130.109 150 150H136.188C136.188 133.772 129.741 118.209 118.266 106.734C106.791 95.2589 91.228 88.8124 75 88.8124C58.772 88.8124 43.2087 95.2589 31.7338 106.734C20.2589 118.209 13.8124 133.772 13.8124 150H0Z" fill="#FDE9D4"/>
<circle cx="74.9999" cy="36.4286" r="21.4286" fill="#FC8B4C"/>
</g>
<defs>
<clipPath id="clip0_335_2253">
<rect width="150" height="150" fill="white"/>
</clipPath>
</defs>
</svg>
