<svg width="140" height="140" viewBox="0 0 140 140" fill="none" xmlns="http://www.w3.org/2000/svg">
<rect width="140" height="140" fill="#FFCC1A"/>
<circle cx="70.5" cy="44.5" r="30.5" fill="#236967"/>
<circle cx="70.5" cy="75.5" r="30.5" fill="#FDE9D4"/>
<path d="M41.3936 44.5C54.6769 39.203 65.203 28.6769 70.5 15.3936C75.797 28.6769 86.3231 39.203 99.6064 44.5C86.3231 49.797 75.797 60.3231 70.5 73.6064C65.203 60.3231 54.6769 49.797 41.3936 44.5Z" stroke="#FDE9D4"/>
<path d="M41.3936 75.5C54.6769 70.203 65.203 59.6769 70.5 46.3936C75.797 59.6769 86.3231 70.203 99.6064 75.5C86.3231 80.797 75.797 91.3231 70.5 104.606C65.203 91.3231 54.6769 80.797 41.3936 75.5Z" stroke="#236967"/>
</svg>
