<svg width="140" height="140" viewBox="0 0 140 140" fill="none" xmlns="http://www.w3.org/2000/svg">
<rect width="140" height="140" fill="#236967"/>
<path d="M70 78L103 140H37L70 78Z" fill="#FC8B4C"/>
<path d="M70 66C73.4287 75.2658 80.7342 82.5713 90 86C80.7342 89.4287 73.4287 96.7342 70 106C66.5713 96.7342 59.2658 89.4287 50 86C59.2658 82.5713 66.5713 75.2658 70 66Z" fill="#FDE9D4"/>
<path d="M70 0C76.0002 16.2152 88.7848 28.9998 105 35C88.7848 41.0002 76.0002 53.7848 70 70C63.9998 53.7848 51.2152 41.0002 35 35C51.2152 28.9998 63.9998 16.2152 70 0Z" fill="#FDE9D4"/>
</svg>
