<svg width="150" height="150" viewBox="0 0 150 150" fill="none" xmlns="http://www.w3.org/2000/svg">
<g clip-path="url(#clip0_327_1405)">
<path d="M0 150L150 150L150 0L0 0L0 150Z" fill="#FDE9D4"/>
<mask id="path-2-inside-1_327_1405" fill="white">
<path d="M150 160.714C150 140.823 142.098 121.747 128.033 107.681C113.968 93.6161 94.8912 85.7144 75 85.7144C55.1088 85.7144 36.0322 93.6161 21.967 107.681C7.90177 121.747 3.00349e-06 140.823 0 160.714H37.2972C37.2972 150.715 41.2695 141.125 48.3401 134.054C55.4107 126.984 65.0006 123.012 75 123.012C84.9994 123.012 94.5893 126.984 101.66 134.054C108.731 141.125 112.703 150.715 112.703 160.714H150Z"/>
</mask>
<path d="M150 160.714C150 140.823 142.098 121.747 128.033 107.681C113.968 93.6161 94.8912 85.7144 75 85.7144C55.1088 85.7144 36.0322 93.6161 21.967 107.681C7.90177 121.747 3.00349e-06 140.823 0 160.714H37.2972C37.2972 150.715 41.2695 141.125 48.3401 134.054C55.4107 126.984 65.0006 123.012 75 123.012C84.9994 123.012 94.5893 126.984 101.66 134.054C108.731 141.125 112.703 150.715 112.703 160.714H150Z" stroke="#FFCC1A" stroke-width="20" mask="url(#path-2-inside-1_327_1405)"/>
<mask id="path-3-outside-2_327_1405" maskUnits="userSpaceOnUse" x="49.4287" y="19.6431" width="52" height="52" fill="black">
<rect fill="white" x="49.4287" y="19.6431" width="52" height="52"/>
<path fill-rule="evenodd" clip-rule="evenodd" d="M78.9287 69.6431H71.0715V55.556L61.1107 65.5168L55.5549 59.961L65.5154 50.0004H51.4287V42.1433H65.516L55.5545 32.1818L61.1103 26.6259L71.0715 36.5871V22.5002H78.9287V36.5872L88.8899 26.6259L94.4458 32.1818L84.4842 42.1433H98.5716V50.0004H84.4849L94.4454 59.961L88.8895 65.5168L78.9287 55.5559V69.6431Z"/>
</mask>
<path fill-rule="evenodd" clip-rule="evenodd" d="M78.9287 69.6431H71.0715V55.556L61.1107 65.5168L55.5549 59.961L65.5154 50.0004H51.4287V42.1433H65.516L55.5545 32.1818L61.1103 26.6259L71.0715 36.5871V22.5002H78.9287V36.5872L88.8899 26.6259L94.4458 32.1818L84.4842 42.1433H98.5716V50.0004H84.4849L94.4454 59.961L88.8895 65.5168L78.9287 55.5559V69.6431Z" fill="#FC8B4C"/>
<path d="M71.0715 69.6431V71.6431C69.967 71.6431 69.0715 70.7476 69.0715 69.6431H71.0715ZM78.9287 69.6431H80.9287C80.9287 70.7476 80.0333 71.6431 78.9287 71.6431V69.6431ZM71.0715 55.556L69.6573 54.1418C70.2293 53.5698 71.0896 53.3987 71.8369 53.7082C72.5843 54.0178 73.0715 54.7471 73.0715 55.556H71.0715ZM61.1107 65.5168L62.5249 66.931C61.7439 67.7121 60.4776 67.7121 59.6965 66.931L61.1107 65.5168ZM55.5549 59.961L54.1407 61.3752C53.3596 60.5941 53.3596 59.3278 54.1407 58.5467L55.5549 59.961ZM65.5154 50.0004V48.0004C66.3243 48.0004 67.0536 48.4877 67.3632 49.2351C67.6727 49.9824 67.5016 50.8427 66.9296 51.4147L65.5154 50.0004ZM51.4287 50.0004V52.0004C50.3241 52.0004 49.4287 51.105 49.4287 50.0004H51.4287ZM51.4287 42.1433H49.4287C49.4287 41.0387 50.3241 40.1433 51.4287 40.1433L51.4287 42.1433ZM65.516 42.1433L66.9303 40.7291C67.5023 41.3011 67.6734 42.1613 67.3638 42.9087C67.0542 43.656 66.325 44.1433 65.516 44.1433V42.1433ZM55.5545 32.1818L54.1403 33.596C53.3592 32.8149 53.3592 31.5486 54.1403 30.7675L55.5545 32.1818ZM61.1103 26.6259L59.6961 25.2117C60.0712 24.8366 60.5799 24.6259 61.1103 24.6259C61.6408 24.6259 62.1495 24.8366 62.5246 25.2117L61.1103 26.6259ZM71.0715 36.5871H73.0715C73.0715 37.396 72.5843 38.1253 71.8369 38.4349C71.0896 38.7444 70.2293 38.5733 69.6573 38.0013L71.0715 36.5871ZM71.0715 22.5002H69.0715C69.0715 21.3956 69.967 20.5002 71.0715 20.5002V22.5002ZM78.9287 22.5002V20.5002C80.0333 20.5002 80.9287 21.3956 80.9287 22.5002H78.9287ZM78.9287 36.5872L80.3429 38.0014C79.7709 38.5734 78.9107 38.7445 78.1633 38.4349C77.416 38.1253 76.9287 37.3961 76.9287 36.5872H78.9287ZM88.8899 26.6259L87.4757 25.2117C87.8508 24.8366 88.3595 24.6259 88.8899 24.6259C89.4204 24.6259 89.9291 24.8366 90.3041 25.2117L88.8899 26.6259ZM94.4458 32.1818L95.86 30.7675C96.641 31.5486 96.641 32.8149 95.86 33.596L94.4458 32.1818ZM84.4842 42.1433V44.1433C83.6753 44.1433 82.946 43.656 82.6365 42.9087C82.3269 42.1613 82.498 41.3011 83.07 40.7291L84.4842 42.1433ZM98.5716 42.1433V40.1433C99.6761 40.1433 100.572 41.0387 100.572 42.1433H98.5716ZM98.5716 50.0004H100.572C100.572 51.105 99.6761 52.0004 98.5716 52.0004V50.0004ZM84.4849 50.0004L83.0707 51.4147C82.4987 50.8427 82.3276 49.9824 82.6371 49.2351C82.9467 48.4877 83.6759 48.0004 84.4849 48.0004V50.0004ZM94.4454 59.961L95.8596 58.5467C96.6406 59.3278 96.6406 60.5941 95.8596 61.3752L94.4454 59.961ZM88.8895 65.5168L90.3038 66.931C89.9287 67.3061 89.42 67.5168 88.8895 67.5168C88.3591 67.5168 87.8504 67.3061 87.4753 66.931L88.8895 65.5168ZM78.9287 55.5559H76.9287C76.9287 54.747 77.416 54.0177 78.1633 53.7082C78.9107 53.3986 79.7709 53.5697 80.3429 54.1417L78.9287 55.5559ZM71.0715 67.6431H78.9287V71.6431H71.0715V67.6431ZM73.0715 55.556V69.6431H69.0715V55.556H73.0715ZM59.6965 64.1026L69.6573 54.1418L72.4858 56.9702L62.5249 66.931L59.6965 64.1026ZM56.9691 58.5467L62.5249 64.1026L59.6965 66.931L54.1407 61.3752L56.9691 58.5467ZM66.9296 51.4147L56.9691 61.3752L54.1407 58.5467L64.1012 48.5862L66.9296 51.4147ZM51.4287 48.0004H65.5154V52.0004H51.4287V48.0004ZM53.4287 42.1433V50.0004H49.4287V42.1433H53.4287ZM65.516 44.1433H51.4287V40.1433H65.516V44.1433ZM56.9687 30.7675L66.9303 40.7291L64.1018 43.5575L54.1403 33.596L56.9687 30.7675ZM62.5246 28.0401L56.9687 33.596L54.1403 30.7675L59.6961 25.2117L62.5246 28.0401ZM69.6573 38.0013L59.6961 28.0401L62.5246 25.2117L72.4858 35.1729L69.6573 38.0013ZM73.0715 22.5002V36.5871H69.0715V22.5002H73.0715ZM78.9287 24.5002H71.0715V20.5002H78.9287V24.5002ZM76.9287 36.5872V22.5002H80.9287V36.5872H76.9287ZM90.3041 28.0401L80.3429 38.0014L77.5145 35.1729L87.4757 25.2117L90.3041 28.0401ZM93.0316 33.596L87.4757 28.0401L90.3041 25.2117L95.86 30.7675L93.0316 33.596ZM83.07 40.7291L93.0316 30.7675L95.86 33.596L85.8984 43.5575L83.07 40.7291ZM98.5716 44.1433H84.4842V40.1433H98.5716V44.1433ZM96.5716 50.0004V42.1433H100.572V50.0004H96.5716ZM84.4849 48.0004H98.5716V52.0004H84.4849V48.0004ZM93.0312 61.3752L83.0707 51.4147L85.8991 48.5862L95.8596 58.5467L93.0312 61.3752ZM87.4753 64.1026L93.0312 58.5467L95.8596 61.3752L90.3038 66.931L87.4753 64.1026ZM80.3429 54.1417L90.3038 64.1026L87.4753 66.931L77.5145 56.9702L80.3429 54.1417ZM76.9287 69.6431V55.5559H80.9287V69.6431H76.9287Z" fill="#236967" mask="url(#path-3-outside-2_327_1405)"/>
</g>
<defs>
<clipPath id="clip0_327_1405">
<rect width="150" height="150" fill="white" transform="matrix(1 0 0 -1 0 150)"/>
</clipPath>
</defs>
</svg>
