<svg width="140" height="140" viewBox="0 0 140 140" fill="none" xmlns="http://www.w3.org/2000/svg">
<rect width="140" height="140" fill="#FFCC1A"/>
<rect x="5.91016" y="16.5161" width="15" height="60" transform="rotate(-45 5.91016 16.5161)" fill="#FDE9D4"/>
<rect x="16.5166" y="58.9429" width="15" height="60" transform="rotate(-135 16.5166 58.9429)" fill="#FDE9D4"/>
<rect x="5.91016" y="91.3687" width="15" height="60" transform="rotate(-45 5.91016 91.3687)" fill="#FDE9D4"/>
<rect x="16.5166" y="133.795" width="15" height="60" transform="rotate(-135 16.5166 133.795)" fill="#FDE9D4"/>
<rect x="80.7627" y="16.5161" width="15" height="60" transform="rotate(-45 80.7627 16.5161)" fill="#FDE9D4"/>
<rect x="91.3691" y="58.9429" width="15" height="60" transform="rotate(-135 91.3691 58.9429)" fill="#FDE9D4"/>
<rect x="80.7627" y="91.3687" width="15" height="60" transform="rotate(-45 80.7627 91.3687)" fill="#FDE9D4"/>
<rect x="91.3691" y="133.795" width="15" height="60" transform="rotate(-135 91.3691 133.795)" fill="#FDE9D4"/>
</svg>
