<svg width="140" height="140" viewBox="0 0 140 140" fill="none" xmlns="http://www.w3.org/2000/svg">
<rect width="140" height="140" fill="#FDE9D4"/>
<circle cx="70.7107" cy="71" r="50" transform="rotate(-45 70.7107 71)" fill="#236967"/>
<mask id="path-3-inside-1_6563_2164" fill="white">
<path d="M35.3556 35.6444C25.9788 45.0213 20.7109 57.739 20.7109 70.9998C20.7109 84.2606 25.9788 96.9783 35.3556 106.355C44.7324 115.732 57.4501 121 70.7109 121C83.9718 121 96.6894 115.732 106.066 106.355L70.7109 70.9998L35.3556 35.6444Z"/>
</mask>
<path d="M35.3556 35.6444C25.9788 45.0213 20.7109 57.739 20.7109 70.9998C20.7109 84.2606 25.9788 96.9783 35.3556 106.355C44.7324 115.732 57.4501 121 70.7109 121C83.9718 121 96.6894 115.732 106.066 106.355L70.7109 70.9998L35.3556 35.6444Z" fill="#FFCC1A" stroke="black" stroke-width="20" mask="url(#path-3-inside-1_6563_2164)"/>
</svg>
