<svg width="44" height="44" fill="none" xmlns="http://www.w3.org/2000/svg"><path d="M20.607 12.286a9.783 9.783 0 0 0-7.913 6.597c-.699 2.099-.7 4.097-.004 6.217a9.68 9.68 0 0 0 6.221 6.213c4.667 1.533 9.659-.533 11.872-4.913.884-1.75 1.229-3.904.936-5.849-.804-5.333-5.752-9.014-11.112-8.265m3.525 1.155c3.222.845 5.589 3.213 6.426 6.427.226.87.308 2.458.173 3.381-.349 2.386-1.745 4.655-3.687 5.993-1.23.848-3.195 1.554-4.329 1.557l-.202.001V23.833h2.867l-.022-.495-.021-.495-1.412-.02-1.412-.02V20.19l.224-.447c.403-.807.97-1.157 2.002-1.236l.634-.049v-.948l-.751.029c-.658.025-.814.057-1.248.261-.94.442-1.632 1.314-1.814 2.285-.04.217-.073.918-.073 1.557v1.161l-1.412.02-1.412.02-.021.495-.022.495h2.867V30.8l-.202-.001c-.347-.001-1.08-.139-1.754-.332-2.73-.779-4.977-2.94-5.89-5.664a9.055 9.055 0 0 1 0-5.606 8.827 8.827 0 0 1 5.563-5.558c1.068-.358 1.661-.438 3.016-.409.999.022 1.332.059 1.912.211" fill-rule="evenodd" fill="#000"/></svg>