<svg width="44" height="44" fill="none" xmlns="http://www.w3.org/2000/svg"><path d="M17.123 12.224c-2.363.345-4.349 2.229-4.833 4.585-.174.842-.174 9.54 0 10.382a5.84 5.84 0 0 0 4.519 4.519c.84.173 9.537.174 10.382.001a5.855 5.855 0 0 0 4.519-4.52c.173-.84.174-9.537.001-10.382-.433-2.109-2.036-3.819-4.185-4.462-.388-.117-.895-.13-5.306-.142-2.682-.007-4.976.001-5.097.019m9.905 1.056c.926.17 2.074.877 2.709 1.666.43.535.884 1.469.985 2.026.108.601.107 9.466-.002 10.056-.105.568-.472 1.349-.903 1.917-.642.848-1.745 1.555-2.794 1.792-.638.144-9.405.145-10.046.001-.619-.139-1.54-.588-2.027-.987-.795-.652-1.501-1.803-1.67-2.723-.052-.284-.08-2.024-.08-5.028 0-3.004.028-4.744.08-5.028.17-.926.877-2.074 1.666-2.709.508-.409 1.46-.884 1.957-.978.535-.1 9.582-.105 10.125-.005m-.335 3.403v.477h1.32v-.953h-1.32v.476m-5.819.96c-.739.179-1.417.585-2.065 1.236-.908.914-1.282 1.824-1.282 3.121 0 1.319.371 2.209 1.318 3.155.946.947 1.836 1.318 3.155 1.318 1.319 0 2.209-.371 3.155-1.318.947-.946 1.318-1.836 1.318-3.155 0-1.297-.374-2.207-1.282-3.121-.955-.96-1.903-1.355-3.228-1.345a5.986 5.986 0 0 0-1.089.109m2.198 1.025c1.168.324 2.214 1.561 2.368 2.8.149 1.197-.168 2.167-.974 2.985-1.373 1.394-3.54 1.398-4.928.009a3.455 3.455 0 0 1 0-4.924c.934-.934 2.192-1.244 3.534-.87" fill-rule="evenodd" fill="#000"/></svg>