<svg width="44" height="44" fill="none" xmlns="http://www.w3.org/2000/svg"><path d="M20.533 12.111c-2.193.366-3.942 1.237-5.488 2.732a9.85 9.85 0 0 0-2.49 3.894c-.404 1.185-.492 1.764-.492 3.263 0 1.499.088 2.078.492 3.263.847 2.479 2.711 4.567 5.155 5.775.496.245 1.566.605 2.237.751.746.164 2.606.227 3.384.116 4.466-.641 7.895-4.04 8.563-8.489.102-.678.102-2.154 0-2.832a9.981 9.981 0 0 0-2.939-5.741c-1.541-1.49-3.28-2.361-5.412-2.711-.693-.114-2.382-.125-3.01-.021m2.897 1.022c.681.094 1.852.46 2.491.779 2.649 1.323 4.492 3.807 4.957 6.684.102.627.102 2.181 0 2.808a9.12 9.12 0 0 1-3.383 5.705 8.95 8.95 0 0 1-8.532 1.353 9.03 9.03 0 0 1-5.534-5.788c-.301-.98-.389-1.582-.389-2.674 0-1.092.088-1.694.389-2.674.857-2.784 3.089-5.022 5.881-5.894 1.332-.417 2.597-.508 4.12-.299m-3.447 6.061c-.247.062-.526.298-.619.524-.115.276-.004.504.295.608.261.091.301.229.273.939l-.022.546-.308-.474a9.738 9.738 0 0 1-.567-1.034c-.144-.312-.36-.646-.486-.752-.22-.185-.256-.191-1.23-.191-.855.001-1.036.021-1.231.14-.453.276-.355.706.53 2.318 1.532 2.792 2.661 3.781 4.559 3.992.98.11 1.491-.081 1.589-.593l.085-.439.045-.229.523.519c.685.678.893.762 1.991.802 1.086.04 1.452-.042 1.653-.372.302-.495.14-.859-.825-1.855-.395-.407-.718-.765-.718-.796 0-.032.285-.441.634-.91 1.085-1.459 1.279-2.103.737-2.434-.206-.125-.374-.142-1.379-.143-1.379 0-1.403.012-1.819.912a9.77 9.77 0 0 1-.563 1.036l-.287.435-.036-1.003c-.04-1.082-.115-1.298-.521-1.507-.174-.09-1.979-.12-2.303-.039m1.944 1.789c0 .53.039 1.093.086 1.252.152.508.561.696 1.01.464.302-.156.9-.99 1.304-1.817l.35-.714.788-.001c.626 0 .788.021.788.102 0 .101-.418.711-1.155 1.685-.39.515-.513.856-.418 1.156.03.094.42.55.869 1.015l.814.845-.256.025c-.142.013-.56.013-.93 0l-.674-.025-.655-.642c-.628-.614-.67-.641-.985-.641-.258 0-.372.042-.522.192-.2.2-.34.58-.341.926 0 .195-.013.202-.4.202-1.384 0-2.406-.666-3.434-2.238-.494-.754-1.373-2.366-1.373-2.517 0-.058.198-.085.617-.085h.617l.375.751c.628 1.26 1.181 1.889 1.661 1.889.3 0 .515-.17.628-.496.117-.338.118-1.805.002-2.089l-.083-.202H21.927v.963" fill-rule="evenodd" fill="#000"/></svg>