<svg width="44" height="44" fill="none" xmlns="http://www.w3.org/2000/svg"><path d="M25.007 12.326c-.368.166-.767.517-.92.81-.148.281-.987 3.679-.987 3.995 0 .484.163.855.548 1.248.335.342.445.4 1.212.652 1.079.353 1.366.5 1.543.79.5.82-.451 3.182-1.849 4.59-.932.94-1.845 1.512-3.067 1.92-.792.265-1.249.297-1.599.115-.317-.166-.474-.439-.782-1.356-.139-.417-.339-.87-.442-1.006-.301-.394-.777-.632-1.344-.672l-.49-.034-1.98.989c-1.155.578-2.062 1.077-2.177 1.2-.432.459-.496.743-.497 2.19-.001.871.032 1.444.097 1.686a3.232 3.232 0 0 0 2.273 2.281c.553.148 4.08.14 5.232-.011 3.076-.403 5.761-1.733 7.982-3.953 2.22-2.221 3.55-4.906 3.953-7.982.151-1.152.159-4.679.011-5.232-.308-1.158-1.286-2.082-2.425-2.293-.238-.044-1.227-.079-2.197-.078-1.616.001-1.793.014-2.095.151m4.656 1.087c.415.25.671.502.901.885l.199.332.025 2.127c.015 1.321-.008 2.376-.06 2.786a12.838 12.838 0 0 1-3.725 7.568c-1.948 1.936-4.291 3.111-7.13 3.577-.952.156-4.039.233-4.766.118-.83-.13-1.336-.482-1.699-1.179-.159-.306-.173-.431-.194-1.711-.019-1.153-.004-1.41.091-1.555.072-.111.756-.497 1.871-1.058 1.805-.907 2.076-.995 2.447-.798.249.133.32.262.602 1.102.289.859.543 1.269.985 1.589.65.471 1.389.485 2.68.053a8.414 8.414 0 0 0 3.732-2.511c.873-1.011 1.38-1.956 1.768-3.294.289-.997.22-1.697-.224-2.279-.319-.419-.659-.615-1.698-.981-1.148-.404-1.341-.553-1.341-1.031 0-.282.653-3.045.818-3.46.045-.113.166-.271.27-.353.181-.142.274-.147 2.172-.126 1.946.022 1.989.026 2.276.199" fill-rule="evenodd" fill="#000"/></svg>