<svg width="44" height="44" fill="none" xmlns="http://www.w3.org/2000/svg"><path d="M20.717 12.251c-3.864.521-7.132 3.349-8.178 7.077a9.914 9.914 0 0 0 1.032 7.739l.355.59-.876 1.76c-.482.968-.877 1.84-.877 1.938 0 .229.243.472.472.472.098 0 .971-.395 1.941-.878l1.764-.878.588.357c1.495.908 3.283 1.399 5.086 1.398 5.399-.003 9.802-4.417 9.802-9.826 0-4.681-3.349-8.751-7.938-9.646-.729-.142-2.463-.199-3.171-.103m2.795 1.061a8.82 8.82 0 0 1 7.176 7.176c.228 1.328.109 3-.304 4.262a8.877 8.877 0 0 1-5.575 5.614c-2.631.891-5.528.479-7.843-1.117l-.525-.362-1.262.632c-.694.347-1.276.617-1.295.599-.018-.019.251-.6.597-1.292l.63-1.258-.397-.601c-1.046-1.582-1.514-3.118-1.514-4.968 0-1.45.292-2.704.92-3.957 1.239-2.468 3.605-4.24 6.303-4.722.792-.141 2.285-.144 3.089-.006m-5.005 3.85a2.958 2.958 0 0 0-.587.31l-.357.239.006 1.466c.006 1.378.018 1.506.207 2.126.736 2.425 2.5 4.187 4.925 4.921.592.18.795.202 2.098.232l1.442.032.258-.355c.321-.442.447-.875.392-1.343a1.824 1.824 0 0 0-.605-1.17c-.344-.302-.491-.357-1.426-.531-1.401-.26-1.911-.061-2.663 1.038-.235.343-.463.613-.507.601-.205-.057-.921-.595-1.334-1.002-.407-.401-1.029-1.214-1.085-1.42-.012-.042.258-.268.6-.503.679-.466.976-.828 1.115-1.359.075-.29.069-.479-.042-1.173-.072-.455-.174-.929-.225-1.053-.138-.332-.534-.752-.87-.924-.336-.171-1.002-.237-1.342-.132m.991 1.071c.235.165.344.463.454 1.246.119.849.06 1.009-.518 1.414a4.87 4.87 0 0 1-.536.342c-.165.063-.341-.812-.396-1.967-.042-.876-.034-.964.09-1.055.187-.137.699-.125.906.02m5.268 5.853c.692.122.834.184 1 .438.146.222.158.697.023.882-.089.122-.187.131-1.045.096-.823-.032-2.011-.222-2.011-.32 0-.018.148-.253.328-.522.486-.724.611-.766 1.705-.574"/></svg>